<?xml version="1.0" encoding="utf-8"?>
<!-- Generator: Adobe Illustrator 27.5.0, SVG Export Plug-In . SVG Version: 6.00 Build 0)  -->
<svg version="1.1" id="Layer_1" xmlns="http://www.w3.org/2000/svg" xmlns:xlink="http://www.w3.org/1999/xlink" x="0px" y="0px"
	 viewBox="0 0 492 492" style="enable-background:new 0 0 492 492;" xml:space="preserve">
<linearGradient id="SVGID_1_" gradientUnits="userSpaceOnUse" x1="51.1231" y1="77.1894" x2="415.8106" y2="441.8769">
	<stop  offset="0" style="stop-color:#00DBDE"/>
	<stop  offset="1" style="stop-color:#FC00FF"/>
</linearGradient>
<path style="fill:url(#SVGID_1_);" d="M435.247,255.35c-0.002-0.038-0.003-0.076-0.006-0.114c-0.022-0.355-0.076-0.701-0.16-1.036
	c-0.002-0.008-0.004-0.015-0.006-0.023c-0.221-0.868-0.636-1.658-1.201-2.318L407.2,216.791V96.55c0-0.715-0.141-1.415-0.394-2.072
	c-0.009-0.022-0.016-0.045-0.025-0.067c-0.198-0.496-0.466-0.962-0.795-1.387c-0.033-0.043-0.066-0.085-0.1-0.127
	c-0.166-0.202-0.341-0.398-0.536-0.578l-0.005-0.005c-0.002-0.002-0.003-0.004-0.005-0.005L334.05,26.5
	c-0.251-0.232-0.524-0.429-0.805-0.609c-0.048-0.03-0.097-0.056-0.146-0.085c-0.244-0.146-0.496-0.273-0.757-0.381
	c-0.061-0.025-0.121-0.05-0.183-0.073c-0.287-0.107-0.58-0.194-0.88-0.254c-0.025-0.005-0.05-0.013-0.076-0.018
	c-0.342-0.064-0.688-0.097-1.038-0.098c-0.005,0-0.011-0.002-0.016-0.002H116.03c-16.93,0-30.7,13.77-30.7,30.7v161.088
	L58.44,252.12c-0.015,0.02-0.023,0.042-0.038,0.062c-0.201,0.272-0.379,0.562-0.53,0.867c-0.022,0.045-0.044,0.089-0.065,0.135
	c-0.135,0.292-0.246,0.596-0.332,0.912c-0.015,0.054-0.029,0.108-0.042,0.163c-0.072,0.301-0.12,0.611-0.143,0.928
	c-0.004,0.064-0.007,0.126-0.009,0.19c-0.003,0.074-0.011,0.147-0.011,0.223v129.15c0,3.18,2.58,5.76,5.76,5.76h22.3v47.29
	c0,16.93,13.77,30.7,30.7,30.7h260.46c16.93,0,30.7-13.77,30.7-30.7v-47.29h22.31c3.18,0,5.75-2.58,5.76-5.76V255.6
	C435.26,255.516,435.251,255.434,435.247,255.35z M417.866,249.84H407.2v-14.023L417.866,249.84z M335.91,43.904l50.791,46.886
	H355.09c-10.58,0-19.18-8.6-19.18-19.18V43.904z M116.03,36.5h208.35v35.11c0,16.93,13.77,30.7,30.7,30.7h40.59v147.53H96.85V55.68
	C96.85,45.1,105.45,36.5,116.03,36.5z M85.33,249.84H74.646l10.684-14.046V249.84z M395.68,437.8c0,10.58-8.61,19.18-19.18,19.18
	H116.03c-10.58,0-19.18-8.6-19.18-19.18v-47.29h298.83V437.8z M423.74,378.99h-22.31H91.09h-22.3V261.36h22.102
	c0.066,0.002,0.131,0.01,0.198,0.01h310.34c0.067,0,0.132-0.008,0.198-0.01h22.112V378.99z M116.45,74.24
	c0-3.18,2.58-5.76,5.76-5.76h178.5c3.18,0,5.76,2.58,5.76,5.76S303.89,80,300.71,80h-178.5C119.03,80,116.45,77.42,116.45,74.24z
	 M116.45,113.24c0-3.18,2.58-5.76,5.76-5.76h234.75c3.18,0,5.76,2.58,5.76,5.76s-2.58,5.76-5.76,5.76H122.21
	C119.03,119,116.45,116.42,116.45,113.24z M116.45,152.24c0-3.18,2.58-5.76,5.76-5.76h234.75c3.18,0,5.76,2.58,5.76,5.76
	c0,3.18-2.58,5.76-5.76,5.76H122.21C119.03,158,116.45,155.42,116.45,152.24z M116.45,191.24c0-3.18,2.58-5.76,5.76-5.76h234.75
	c3.18,0,5.76,2.58,5.76,5.76c0,3.18-2.58,5.76-5.76,5.76H122.21C119.03,197,116.45,194.42,116.45,191.24z M116.45,230.24
	c0-3.18,2.58-5.76,5.76-5.76h234.75c3.18,0,5.76,2.58,5.76,5.76c0,3.18-2.58,5.76-5.76,5.76H122.21
	C119.03,236,116.45,233.42,116.45,230.24z M231.56,299.73c0,8.11,6.59,14.7,14.7,14.7c14.46,0,26.22,11.76,26.22,26.22
	s-11.76,26.22-26.22,26.22c-14.46,0-26.22-11.76-26.22-26.22c0-3.18,2.58-5.76,5.76-5.76c3.18,0,5.76,2.58,5.76,5.76
	c0,8.11,6.59,14.7,14.7,14.7c8.1,0,14.7-6.59,14.7-14.7c0-8.11-6.59-14.7-14.7-14.7c-14.46,0-26.22-11.76-26.22-26.22
	c0-14.46,11.76-26.22,26.22-26.22c14.46,0,26.22,11.76,26.22,26.22c0,3.18-2.58,5.76-5.76,5.76s-5.76-2.58-5.76-5.76
	c0-8.11-6.59-14.7-14.7-14.7C238.15,285.03,231.56,291.62,231.56,299.73z M144.8,320.19c0,19.39,15.77,35.16,35.16,35.16h9.29
	c3.18,0,5.76,2.58,5.76,5.76c0,3.18-2.57,5.76-5.76,5.76h-9.29c-25.74,0-46.68-20.94-46.68-46.68s20.94-46.68,46.68-46.68h9.29
	c3.18,0,5.76,2.58,5.76,5.76c0,3.18-2.58,5.76-5.76,5.76h-9.29C160.57,285.03,144.8,300.8,144.8,320.19z M358.88,281.27
	l-30.31,81.84c-0.84,2.26-2.99,3.76-5.4,3.76c-2.41,0-4.56-1.5-5.4-3.76l-30.31-81.84c-1.1-2.98,0.42-6.3,3.4-7.4
	c2.98-1.11,6.3,0.42,7.4,3.4l24.91,67.25l24.91-67.25c1.1-2.98,4.42-4.51,7.4-3.4C358.46,274.97,359.99,278.29,358.88,281.27z"/>
</svg>
