<svg width="150" height="108" viewBox="0 0 150 108" fill="none" xmlns="http://www.w3.org/2000/svg">
<path d="M150 0H0V108H150V0ZM143.478 6.54545V86.0564L111.473 53.0836L89.5761 72L53.5761 43.7236L6.52174 90V6.54545H143.478ZM6.52174 101.455V99.1309L54.0489 52.3636L89.7717 80.4436L111.082 62.0673L143.478 95.4327V101.455H6.52174Z" fill="black"/>
<path d="M121.191 45.8181C124.416 45.8181 127.568 44.8584 130.249 43.0603C132.931 41.2623 135.02 38.7066 136.254 35.7166C137.488 32.7265 137.811 29.4363 137.182 26.2621C136.553 23.0878 135 20.1721 132.72 17.8836C130.44 15.5951 127.535 14.0366 124.372 13.4053C121.209 12.7739 117.931 13.0979 114.952 14.3364C111.972 15.575 109.426 17.6723 107.634 20.3633C105.843 23.0543 104.887 26.218 104.887 29.4545C104.887 33.7944 106.604 37.9565 109.662 41.0253C112.72 44.0941 116.867 45.8181 121.191 45.8181ZM121.191 19.6363C123.126 19.6363 125.017 20.2121 126.626 21.2909C128.235 22.3698 129.489 23.9032 130.229 25.6972C130.969 27.4912 131.163 29.4654 130.786 31.3699C130.408 33.2744 129.477 35.0239 128.108 36.397C126.74 37.7701 124.997 38.7052 123.1 39.084C121.202 39.4628 119.235 39.2684 117.447 38.5253C115.66 37.7822 114.132 36.5237 113.057 34.9092C111.982 33.2946 111.408 31.3963 111.408 29.4545C111.408 26.8505 112.439 24.3532 114.274 22.512C116.108 20.6707 118.597 19.6363 121.191 19.6363Z" fill="black"/>
</svg>
