<?xml version="1.0" encoding="utf-8"?>
<!-- Generator: Adobe Illustrator 27.5.0, SVG Export Plug-In . SVG Version: 6.00 Build 0)  -->
<svg version="1.1" id="Layer_1" xmlns="http://www.w3.org/2000/svg" xmlns:xlink="http://www.w3.org/1999/xlink" x="0px" y="0px"
	 viewBox="0 0 491.52 491.52" style="enable-background:new 0 0 491.52 491.52;" xml:space="preserve">
<g id="Layer_x5F_1">
	<g id="_416742424">
		<path id="_416743384" style="fill-rule:evenodd;clip-rule:evenodd;fill:#415EB3;" d="M406.64,271.62c-2.65,0-4.8-2.15-4.8-4.8
			V134.31l-98.8-98.8H94.57c-2.69,0-4.88,2.18-4.88,4.87v226.44c0,2.65-2.15,4.8-4.8,4.8s-4.8-2.15-4.8-4.8V40.38
			c0-7.98,6.5-14.47,14.48-14.47h210.46c1.27,0,2.49,0.5,3.39,1.4l101.61,101.61c0.9,0.9,1.41,2.13,1.41,3.4v134.5
			C411.44,269.47,409.28,271.62,406.64,271.62L406.64,271.62z M396.96,465.61H94.57c-7.98,0-14.48-6.5-14.48-14.48v-33.38
			c0-2.65,2.15-4.8,4.8-4.8s4.8,2.15,4.8,4.8v33.38c0,2.69,2.19,4.88,4.88,4.88h302.39c2.69,0,4.88-2.19,4.88-4.88v-33.38
			c0-2.65,2.15-4.8,4.8-4.8c2.65,0,4.8,2.15,4.8,4.8v33.38C411.44,459.11,404.93,465.61,396.96,465.61L396.96,465.61z"/>
		<path id="_416743312" style="fill-rule:evenodd;clip-rule:evenodd;fill:#415EB3;" d="M122.69,271.62c-2.65,0-4.8-2.15-4.8-4.8
			V68.5c0-2.65,2.15-4.8,4.8-4.8h182.34c2.65,0,4.8,2.15,4.8,4.8s-2.15,4.8-4.8,4.8H127.49v193.52
			C127.48,269.47,125.33,271.62,122.69,271.62L122.69,271.62z M368.84,271.62c-2.65,0-4.8-2.15-4.8-4.8v-134.5
			c0-2.65,2.15-4.8,4.8-4.8s4.8,2.15,4.8,4.8v134.5C373.63,269.47,371.48,271.62,368.84,271.62L368.84,271.62z"/>
		<path id="_416743240" style="fill-rule:evenodd;clip-rule:evenodd;fill:#415EB3;" d="M406.64,137.12h-93.49
			c-7.12,0-12.92-5.8-12.92-12.93V30.71c0-2.65,2.14-4.8,4.8-4.8c2.65,0,4.8,2.15,4.8,4.8v93.48c0,1.84,1.49,3.33,3.32,3.33h93.49
			c2.65,0,4.8,2.15,4.8,4.8C411.44,134.97,409.28,137.12,406.64,137.12L406.64,137.12z"/>
		<path id="_416743168" style="fill-rule:evenodd;clip-rule:evenodd;fill:#415EB3;" d="M76.7,271.62c-1.37,0-2.53,1.16-2.53,2.53
			v136.27c0,1.38,1.16,2.53,2.53,2.53h338.13c1.37,0,2.53-1.15,2.53-2.53V274.15c0-1.37-1.16-2.53-2.53-2.53H76.7L76.7,271.62z
			 M414.83,422.55H76.7c-6.69,0-12.13-5.44-12.13-12.13V274.15c0-6.69,5.44-12.13,12.13-12.13h338.13c6.69,0,12.13,5.44,12.13,12.13
			v136.27C426.96,417.11,421.51,422.55,414.83,422.55L414.83,422.55z"/>
		<path id="_416743096" style="fill-rule:evenodd;clip-rule:evenodd;fill:#415EB3;" d="M340.95,232.17H150.57
			c-2.65,0-4.8-2.15-4.8-4.8c0-2.66,2.15-4.8,4.8-4.8h190.37c2.65,0,4.8,2.14,4.8,4.8C345.74,230.02,343.59,232.17,340.95,232.17
			L340.95,232.17z"/>
		<path id="_416743024" style="fill-rule:evenodd;clip-rule:evenodd;fill:#415EB3;" d="M340.95,192.36H150.57
			c-2.65,0-4.8-2.15-4.8-4.8c0-2.65,2.15-4.8,4.8-4.8h190.37c2.65,0,4.8,2.15,4.8,4.8C345.74,190.21,343.59,192.36,340.95,192.36
			L340.95,192.36z"/>
		<path id="_416742952" style="fill-rule:evenodd;clip-rule:evenodd;fill:#415EB3;" d="M277.14,152.56H150.57
			c-2.65,0-4.8-2.15-4.8-4.8c0-2.65,2.15-4.8,4.8-4.8h126.56c2.65,0,4.8,2.15,4.8,4.8C281.94,150.41,279.78,152.56,277.14,152.56
			L277.14,152.56z"/>
		<path id="_416742880" style="fill-rule:evenodd;clip-rule:evenodd;fill:#415EB3;" d="M277.14,112.76H150.57
			c-2.65,0-4.8-2.15-4.8-4.8s2.15-4.8,4.8-4.8h126.56c2.65,0,4.8,2.15,4.8,4.8C281.94,110.61,279.78,112.76,277.14,112.76
			L277.14,112.76z"/>
		<path id="_416742808" style="fill-rule:evenodd;clip-rule:evenodd;fill:#415EB3;" d="M154.97,387.17c-1.57,0-3.11-0.77-4.03-2.19
			l-51.86-80.17c-1.44-2.22-0.8-5.2,1.43-6.64c2.23-1.44,5.2-0.8,6.63,1.43L159,379.76c1.44,2.23,0.8,5.2-1.43,6.64
			C156.77,386.92,155.85,387.17,154.97,387.17L154.97,387.17z"/>
		<path id="_416742736" style="fill-rule:evenodd;clip-rule:evenodd;fill:#415EB3;" d="M103.11,387.17c-0.89,0-1.8-0.25-2.6-0.77
			c-2.23-1.44-2.87-4.41-1.43-6.64l51.86-80.16c1.44-2.23,4.41-2.87,6.63-1.43c2.23,1.44,2.87,4.42,1.43,6.64l-51.86,80.17
			C106.23,386.4,104.67,387.17,103.11,387.17L103.11,387.17z"/>
		<path id="_416742664" style="fill-rule:evenodd;clip-rule:evenodd;fill:#415EB3;" d="M237.35,387.17H185.5
			c-2.65,0-4.8-2.15-4.8-4.8V302.2c0-2.65,2.15-4.8,4.8-4.8s4.8,2.15,4.8,4.8v75.37h47.05c2.66,0,4.8,2.15,4.8,4.8
			C242.14,385.02,240,387.17,237.35,387.17L237.35,387.17z"/>
		<path id="_416742592" style="fill-rule:evenodd;clip-rule:evenodd;fill:#415EB3;" d="M298.8,387.17h-23.71
			c-10.4,0-18.87-8.47-18.87-18.87c0-2.65,2.15-4.8,4.8-4.8c2.65,0,4.8,2.15,4.8,4.8c0,5.11,4.16,9.27,9.27,9.27h23.71
			c5.12,0,9.27-4.16,9.27-9.27v-11.94c0-5.12-4.15-9.27-9.27-9.27h-23.71c-10.4,0-18.87-8.47-18.87-18.87v-11.95
			c0-10.4,8.47-18.87,18.87-18.87h23.71c10.41,0,18.87,8.47,18.87,18.87c0,2.66-2.14,4.8-4.8,4.8c-2.65,0-4.8-2.14-4.8-4.8
			c0-5.11-4.15-9.27-9.27-9.27h-23.71c-5.11,0-9.27,4.16-9.27,9.27v11.95c0,5.11,4.16,9.27,9.27,9.27h23.71
			c10.41,0,18.87,8.46,18.87,18.87v11.94C317.68,378.7,309.21,387.17,298.8,387.17z"/>
		<path id="_416742520" style="fill-rule:evenodd;clip-rule:evenodd;fill:#415EB3;" d="M388.42,387.17c-1.58,0-3.12-0.77-4.04-2.19
			l-51.85-80.17c-1.44-2.22-0.8-5.2,1.43-6.64c2.22-1.44,5.19-0.8,6.63,1.43l51.85,80.16c1.44,2.23,0.81,5.2-1.42,6.64
			C390.22,386.92,389.3,387.17,388.42,387.17L388.42,387.17z"/>
		<path id="_416742472" style="fill-rule:evenodd;clip-rule:evenodd;fill:#415EB3;" d="M336.56,387.17c-0.89,0-1.8-0.25-2.6-0.77
			c-2.23-1.44-2.87-4.41-1.43-6.64l51.85-80.16c1.44-2.23,4.41-2.87,6.64-1.43c2.23,1.44,2.86,4.42,1.42,6.64l-51.85,80.17
			C339.68,386.4,338.12,387.17,336.56,387.17L336.56,387.17z"/>
	</g>
</g>
</svg>
